<?xml version="1.0" encoding="UTF-8" standalone="no"?>
<svg
   width="1.70667in"
   height="1.70667in"
   viewBox="0 0 512 512"
   version="1.1"
   id="svg42"
   sodipodi:docname="LOGO20250429.svg"
   inkscape:version="1.2.2 (b0a8486541, 2022-12-01)"
   xmlns:inkscape="http://www.inkscape.org/namespaces/inkscape"
   xmlns:sodipodi="http://sodipodi.sourceforge.net/DTD/sodipodi-0.dtd"
   xmlns="http://www.w3.org/2000/svg"
   xmlns:svg="http://www.w3.org/2000/svg">
  <defs
     id="defs46" />
  <sodipodi:namedview
     id="namedview44"
     pagecolor="#505050"
     bordercolor="#eeeeee"
     borderopacity="1"
     inkscape:showpageshadow="0"
     inkscape:pageopacity="0"
     inkscape:pagecheckerboard="0"
     inkscape:deskcolor="#505050"
     inkscape:document-units="in"
     showgrid="false"
     showguides="false"
     inkscape:zoom="3.2104429"
     inkscape:cx="97.961563"
     inkscape:cy="87.838349"
     inkscape:window-width="1366"
     inkscape:window-height="696"
     inkscape:window-x="0"
     inkscape:window-y="0"
     inkscape:window-maximized="1"
     inkscape:current-layer="svg42" />
  <path
     d="m 170,330 h -1 l 1,1 z"
     id="path3558" />
  <path
     d="M 105.74,275 C 100.09,264.04 92.44,252.92 85.12,243 L 67.08,220 52.6,202 C 36.13,181.41 16.04,155.65 16,128 v -7 c 0.08,-6.83 1.7,-13.66 4.2,-20 2.27,-5.74 4.88,-10.34 8.98,-15 C 38.08,75.9 49.19,70.04 62,66.43 l 17.926342,-2.978136 2.793665,25.035779 C 73.840007,90.157643 63.71,91.54 56,96.55 35.46,109.87 38.44,133.29 48.86,152 c 15.71,28.22 45.48,58.06 64.81,87 6.19,9.27 20.21721,30.9964 25.04784,41.08743 L 117.9437,291.8922 C 114.02754,287.76722 108.3,279.96 105.74,275"
     id="path3552"
     style="fill:#cccccc"
     sodipodi:nodetypes="ccccccccccccccccc" />
  <path
     d="M 263.70671,238.59288 264,218 c -0.03,-16.33 1.26,-32.79 3.28,-49 2.65,-21.23 8.95,-56.08 8.72,-76 -0.21,-17.73 -6.98,-38.84 -25,-45.88 -9.52,-3.72 -28.48456,-0.535104 -37.09456,4.764896 l -8.70633,-23.52671 C 212.45911,25.828186 230.32,20.09 238,20 c 8.34,-0.09 14.03,0.67 22,3.36 6.68,2.24 12.82,5.96 18,10.73 15.76,14.52 20.64,30.26 22.09,50.91 0.31,4.39 1.07,5.95 0.87,11 l -0.96,8 v 9 l -4.27,34 -3.58,25 -3.15,35 v 14 l -0.14917,20.53751 z"
     id="path3550"
     style="fill:#cccccc"
     sodipodi:nodetypes="cccccccccccccccccccc" />
  <path
     d="m 211.69,57.57 c -3.44,3.22 -7.55,1.97 -11.69,1.43 -0.6,3.67 -1.2,5.93 -3.56,8.96 -1.72,2.22 -3.92,4.09 -6.44,5.35 -3.05,1.54 -5.67,1.68 -9,1.68 -22.73,0 -25.51,-28.09 -10,-36.32 4.76,-2.52 6.98,-2.28 11.98,-2.53 7.06,-0.35 4.81,-6.1 11.04,-8.44 4.03,-1.42 9.28399,0.07572 14.22399,-1.124279 L 217.14,50.53 c -1.82,1.125 -2.515,2.26 -3.08875,3.42625 C 213.4775,55.1225 213.025,56.32 211.69,57.57"
     id="Selection"
     style="fill:#1a68d1;fill-opacity:1" />
  <path
     d="M 78.541195,62.897872 C 83.451195,61.357872 81.36,59 86.01,58.23 91.43,57.34 93.7,60.67 97,60.29 99.85,59.96 101.98,56.94 108,56.18 122.22,54.39 131.61,62.5 130.96,77 130.35,90.46 116.09,98.3 104,93.39 100.77,92.08 98.62,90.21 96,88 91.38,93.7 84.87,95.52 81,88 Z"
     id="path3554"
     style="fill:#1a68d1;fill-opacity:1" />
  <path
     id="path3548"
     d="m 371.00145,177.00159 c -4.04,7.06 -6.18364,26.6275 -5.99364,34.99749 0.71999,31.56997 7.11963,51.29213 9.32954,76.55418 -0.10393,11.13784 28.31781,189.18424 -41.33632,169.25831 -20.34998,-6.50999 -37.94868,-21.20122 -50.98866,-37.8112 l -15.01462,-22.00313 c 6.60999,-3.22 9.80242,-5.83852 15.00241,-10.99851 31.47997,-31.24997 23.57801,-78.74907 16.74801,-117.99903 -1.84999,-10.60999 -4.71852,-21.18068 -4.74852,-32.00067 l -33.00164,-3.99779 c 0,9.60999 0.004,9.45021 1.15356,19.0002 0.46,3.78 1.82956,8.30949 0.79956,11.99949 -1.51,5.40999 -8.40287,16.44606 -11.96287,20.99605 -19.97998,25.48998 -50.73741,36.32281 -80.98738,22.69283 -5.83,-2.63 -14.54155,-6.64094 -18.37155,-11.73094 -3.73999,-4.96999 -11.75895,-20.72409 -12.74411,-21.71626 -0.90113,0.10187 -26.88594,19.75704 -26.88594,19.75704 l 18.68893,33.00164 c 15.36999,28.29997 28.04193,55.87961 57.3119,72.97959 10.51999,6.14999 21.11165,8.33119 33.00164,9.74119 8.83999,1.04 11.20765,-1.76499 14.36765,0.88501 1.53999,1.3 7.48149,11.85206 9.05149,14.39206 4.44,7.11999 12.19899,17.82898 17.74899,23.99897 21.10998,23.45998 46.3919,39.51169 77.83187,44.56168 10.17999,1.64 18.41165,0.37736 29.15037,-1.62109 7.7173,-3.00322 20.84197,-16.10672 30.74038,-32.28934 16.95507,-45.17638 14.84872,-107.89862 12.66261,-125.77521 -2.16235,-26.33377 -10.15001,-54.61112 -10.15001,-54.61112 -3.73669,-16.92792 -7.58746,-44.39871 -6.14736,-65.03007 0.59174,-8.97949 -0.35473,-20.1311 2.90527,-23.1811 -11.76477,-3.09141 -19.76185,-7.54127 -28.16156,-14.05027 z M 270.00067,296.0016 c 1.64,20.24998 5.6887,42.68843 -6.09129,60.99841 -3.54,5.50999 -8.15989,9.90812 -13.90989,13.09812 -27.79997,15.40998 -50.21097,3.16114 -67.87095,-20.09884 -4.54,-5.98999 -9.05767,-12.12021 -12.12766,-19.0002 9.02999,0.75999 18.75677,4.31013 27.99677,3.90013 22.06997,-0.98 41.4516,-9.76819 58.00159,-24.18818 z"
     style="fill:#1a68d1;fill-opacity:1"
     sodipodi:nodetypes="ccccccccccccccccccccccccccccccccccccccc" />
  <circle
     style="fill:#999999;fill-opacity:1;stroke:none;stroke-width:0.899998;stroke-dasharray:none;stroke-opacity:1"
     id="path905"
     cx="411.85754"
     cy="130.8035"
     r="64.335815" />
  <path
     id="path3558-7"
     d="m 235.81495,38.867109 c -3.14117,0.08883 -6.28338,0.473598 -9.36277,1.037595 -4.45376,0.760223 -8.8989,2.145157 -13.09202,3.961174 -1.00487,1.166188 -1.88306,2.517896 -2.60009,3.900138 -0.80817,2.195106 -2.5773,4.014796 -4.80956,4.760733 -2.58929,0.985506 -5.35838,0.246134 -8.00169,-0.04883 -0.68047,-0.192644 -1.22806,-0.209033 -1.14136,0.659178 -0.56936,4.570919 -3.1606,8.755973 -6.7932,11.541725 -2.88843,2.432797 -6.6709,3.588244 -10.41257,3.631584 -5.34505,0.263055 -11.00305,-1.003142 -15.09397,-4.620352 -1.06196,-0.927809 -1.90741,-2.039046 -2.70385,-3.179925 1.80498,7.778199 8.05566,14.459199 19.11617,14.459199 3.33,0 5.94658,-0.138466 8.99657,-1.678463 2.51999,-1.259998 4.71919,-3.132777 6.43919,-5.352772 2.36,-3.029994 2.96445,-5.289951 3.56445,-8.959943 4.14,0.539998 8.24821,1.791774 11.68821,-1.42822 1.335,-1.249998 1.78831,-2.447026 2.36205,-3.613274 0.57375,-1.166248 1.26838,-2.299067 3.08838,-3.424065 l -0.0916,-0.250244 c 9.46462,-4.280724 25.45144,-6.483961 33.95379,-3.161614 8.27909,3.234449 14.08796,9.503975 18.07248,16.986049 -1.39801,-3.855472 -3.14204,-7.581285 -5.46874,-10.980202 -4.36637,-6.350628 -10.76045,-11.60466 -18.34103,-13.482639 -3.08479,-0.637424 -6.22771,-0.84566 -9.36888,-0.756834 z m 56.56727,14.782685 c 1.56901,4.518142 2.77719,9.177103 3.4912,13.891573 0.87934,5.2637 1.01577,10.60933 1.77612,15.887419 0.48716,3.134937 0.29722,6.321406 -0.15258,9.448223 -0.72517,4.198636 -0.52601,8.473321 -0.53101,12.713601 -0.60338,5.85731 -1.39298,11.6955 -2.11181,17.54146 -1.39852,11.73259 -3.03398,23.43913 -4.73022,35.13177 -0.51089,3.4121 -1.00223,6.82529 -1.27563,10.26609 -0.99935,10.45002 -1.89634,20.83496 -2.84423,31.29877 -0.079,9.95934 -0.10605,26.04635 -0.19484,36.00683 1.00144,0.12078 2.00149,0.24542 3.00293,0.36621 l 0.10935,-15.2244 V 206.982 l 3.14941,-35.00359 3.57665,-24.99995 4.27246,-33.99651 v -9.00267 l 0.95825,-8.001691 c 0.2,-5.04999 -0.5567,-6.608523 -0.8667,-10.998513 C 299.17832,73.11245 296.8959,62.973638 292.38219,53.649794 Z M 126.85521,62.63415 c 0.44067,1.656754 1.00587,3.294065 1.06811,4.986563 0.37477,4.820314 -1.03497,9.811796 -4.16258,13.53757 -4.98626,6.150904 -13.87695,8.498649 -21.35006,6.0974 -3.633757,-1.060579 -6.576155,-3.541767 -9.448222,-5.895985 -0.825066,0.920439 -1.693458,1.807194 -2.642817,2.600093 -1.268359,1.018359 -2.711599,1.971948 -4.351798,2.209468 -1.729228,0.37094 -3.404735,-0.291338 -5.047597,-0.744627 -0.843634,-1.112369 -1.749785,-2.183341 -2.52685,-3.34472 -3.356616,0.595349 -6.712649,1.203108 -10.040263,1.947017 -1.375429,0.31692 -2.887598,0.68102 -4.156486,1.043699 -3.463192,0.907189 -6.821299,2.245196 -9.924296,4.034416 -6.318249,3.618566 -11.606301,9.221775 -14.269991,16.052216 -3.003899,7.52488 -2.747325,15.97021 -0.805662,23.72431 1.434432,5.82934 3.940796,11.2474 6.81151,16.49167 -7.58367,-17.37963 -8.319118,-37.01746 9.912089,-48.840233 7.350382,-4.776318 16.863934,-6.231735 25.433298,-7.80638 3.908102,6.612834 10.108341,4.751329 14.562959,-0.744628 2.619995,2.209996 4.771696,4.079396 8.001696,5.389394 12.08997,4.90999 26.34917,-2.934037 26.95917,-16.39401 0.26784,-5.975071 -1.24464,-10.784061 -4.02221,-14.343233 z m 341.76567,38.17131 c 3.53632,9.08634 5.13954,18.9338 4.29076,28.65595 -1.18364,14.70486 -7.64909,28.90686 -17.9504,39.46525 -11.36367,11.79861 -21.60626,15.32725 -37.15117,20.37116 -12.51386,3.3199 -19.76023,3.17923 -22.88995,3.60469 -0.14637,7.28389 -2.15424,19.64342 -1.97658,26.93347 0.0105,0.53113 0.0225,1.42415 0.0305,1.72729 0.0222,0.71164 0.0423,1.42471 0.0671,2.13623 0.0202,0.54409 0.057,1.3842 0.0671,1.7456 0.40072,9.02877 1.35669,18.02291 2.64892,26.96528 0.074,0.52511 0.20614,1.41846 0.24414,1.71508 0.91652,6.0907 1.98261,12.15955 3.33252,18.17013 3.38367,12.97276 6.31886,26.07449 8.31907,39.33708 1.43303,9.75006 2.41126,19.57176 2.92968,29.41278 0.77266,17.47199 0.36518,35.00095 -1.24511,52.41689 -1.92448,20.09684 -5.40015,40.19941 -12.3657,59.21008 -4.68719,7.86114 -10.28965,15.18916 -16.68698,21.74068 -4.04596,4.21859 -8.53555,8.10563 -13.7695,10.77879 -7.94471,1.48321 -16.02053,2.87576 -24.13325,2.31933 -9.26539,-0.86202 -18.37957,-3.06513 -27.14228,-6.17064 -18.07385,-6.32972 -34.31069,-17.25252 -47.98574,-30.56024 -7.73116,-7.3805 -14.48652,-15.72115 -20.56271,-24.49947 -4.29041,-5.79994 -7.68985,-12.17919 -11.5051,-18.28609 -1.02906,-1.44602 -1.74483,-3.16814 -3.17992,-4.27856 -1.42262,-1.23282 -3.39621,-0.94253 -5.11474,-0.77514 -2.7036,0.34313 -5.43254,0.45826 -8.14818,0.177 -10.03424,-1.06731 -20.13923,-2.99939 -29.28461,-7.42186 -12.77894,-6.33875 -23.7593,-15.9319 -32.65374,-27.01411 -10.55182,-13.19902 -18.35507,-28.27216 -26.33051,-43.09073 -5.86388,-10.74878 -11.96472,-21.36301 -18.00534,-32.01287 -0.0817,0.0594 -0.54931,0.40283 -0.54931,0.40283 l 18.68893,33.00164 c 15.36996,28.29991 28.04198,55.87964 57.31189,72.97959 10.51997,6.14997 21.11168,8.33119 33.00164,9.74119 8.83998,1.04 11.20766,-1.76499 14.36765,0.88501 1.53999,1.3 7.4815,11.85206 9.0515,14.39206 4.43998,7.11997 12.199,17.829 17.74898,23.99897 21.10994,23.45994 46.39197,39.5117 77.83188,44.56168 10.17997,1.64 18.41163,0.37492 29.15033,-1.62353 7.71728,-3.00322 20.83885,-16.10494 30.73724,-32.28753 16.95504,-45.17629 14.85088,-107.89833 12.66477,-125.7749 -2.16235,-26.33371 -10.15013,-54.61414 -10.15013,-54.61414 -3.73668,-16.9279 -7.58632,-44.39541 -6.14622,-65.02673 0.49958,-7.58096 0.0551,-16.41548 1.81884,-20.9106 4.51495,1.10021 9.13582,1.708 13.78171,1.81274 35.52787,-0.003 64.32822,-28.80305 64.33092,-64.33092 -0.0236,-10.45348 -2.59407,-20.74377 -7.48899,-29.98041 z M 21.942094,154.96184 c 7.193104,17.30799 19.622644,33.32485 30.578552,47.02139 l 14.477509,17.99923 18.041956,22.998 c 7.319986,9.91998 14.967649,21.04069 20.617629,32.00067 1.48769,2.8824 4.00416,6.46503 6.62841,9.91209 0.48585,-0.35828 0.97263,-0.71627 1.45874,-1.07422 -4.33199,-5.12125 -8.48987,-10.46583 -11.54173,-16.46725 C 96.596556,256.88238 89.938997,247.01439 82.891678,237.469 76.489828,229.15017 69.995721,220.89801 63.476434,212.67047 52.661123,198.89365 41.1368,185.6365 31.37811,171.06289 c -3.443844,-5.1624 -6.651383,-10.53313 -9.436016,-16.10105 z m 269.512396,81.71981 c 0.42746,4.0437 0.86257,8.09327 1.64184,12.08494 2.08711,10.55085 4.02539,21.13064 5.61522,31.76873 2.31976,15.48128 3.98303,31.19039 2.7771,46.85049 -0.86499,11.52605 -3.4294,23.03288 -8.54491,33.4472 -4.17036,8.65875 -10.2273,16.32971 -17.37667,22.72334 -3.39667,3.22891 -7.4194,5.70433 -11.59666,7.78807 1.35788,1.98926 2.7143,3.97931 4.07104,5.96923 5.72877,-2.93118 9.04261,-5.5337 13.87937,-10.33323 31.4799,-31.24991 23.57799,-78.74915 16.74801,-117.99903 -1.84999,-10.60997 -4.71853,-21.1807 -4.74853,-32.00067 z m -24.49336,52.66103 c -4.58075,4.75962 -9.09431,9.62415 -13.72068,14.35544 -4.77818,4.34388 -10.02049,8.18254 -15.55783,11.5051 -12.40965,7.49935 -26.61476,12.10592 -41.11319,12.91501 -4.32122,0.33825 -8.65464,-0.11857 -12.90891,-0.8728 -5.56545,-1.00429 -11.07369,-2.39134 -16.7175,-2.91137 1.09573,2.34015 2.41511,4.56688 3.74755,6.78099 8.81701,0.88392 18.24309,4.16453 27.22773,3.76586 22.06993,-0.98 41.45164,-9.76822 58.00159,-24.18818 l 11.82249,-12.42063 c -0.27891,-2.97712 -0.53929,-5.95778 -0.78125,-8.92942 z"
     style="fill:#000000;fill-opacity:0.260452;stroke-width:0.899998;stroke-dasharray:none"
     sodipodi:nodetypes="cccccccccccsccccsccccccscccccccccccccccccccccccccccccccccccccccccccccccccccccccccccccccccccccccccccccccccccccccccccccccccccccccccccccccccccccccccccccc" />
</svg>
